<mxfile host="app.diagrams.net" modified="2023-02-15T09:10:21.268Z" agent="5.0 (Macintosh; Intel Mac OS X 10_15_7) AppleWebKit/537.36 (KHTML, like Gecko) Chrome/110.0.0.0 Safari/537.36" etag="n64eOD1UFUeFUlmEutWv" version="20.6.0" type="github">
  <diagram id="C5RBs43oDa-KdzZeNtuy" name="Page-1">
    <mxGraphModel dx="1010" dy="1324" grid="1" gridSize="10" guides="1" tooltips="1" connect="1" arrows="1" fold="1" page="1" pageScale="1" pageWidth="827" pageHeight="1169" math="0" shadow="0">
      <root>
        <mxCell id="WIyWlLk6GJQsqaUBKTNV-0" />
        <mxCell id="WIyWlLk6GJQsqaUBKTNV-1" parent="WIyWlLk6GJQsqaUBKTNV-0" />
        <mxCell id="cIDCOp1NnjhTxHDQNaKy-12" value="" style="edgeStyle=orthogonalEdgeStyle;rounded=0;orthogonalLoop=1;jettySize=auto;html=1;" edge="1" parent="WIyWlLk6GJQsqaUBKTNV-1" source="cIDCOp1NnjhTxHDQNaKy-0" target="cIDCOp1NnjhTxHDQNaKy-1">
          <mxGeometry relative="1" as="geometry" />
        </mxCell>
        <mxCell id="cIDCOp1NnjhTxHDQNaKy-0" value="Create random string (code verifier)" style="rounded=1;whiteSpace=wrap;html=1;" vertex="1" parent="WIyWlLk6GJQsqaUBKTNV-1">
          <mxGeometry x="240" y="120" width="120" height="60" as="geometry" />
        </mxCell>
        <mxCell id="cIDCOp1NnjhTxHDQNaKy-13" value="" style="edgeStyle=orthogonalEdgeStyle;rounded=0;orthogonalLoop=1;jettySize=auto;html=1;" edge="1" parent="WIyWlLk6GJQsqaUBKTNV-1" source="cIDCOp1NnjhTxHDQNaKy-1" target="cIDCOp1NnjhTxHDQNaKy-2">
          <mxGeometry relative="1" as="geometry" />
        </mxCell>
        <mxCell id="cIDCOp1NnjhTxHDQNaKy-1" value="Create SHA256 hash (code challenge)" style="rounded=1;whiteSpace=wrap;html=1;" vertex="1" parent="WIyWlLk6GJQsqaUBKTNV-1">
          <mxGeometry x="240" y="210" width="120" height="60" as="geometry" />
        </mxCell>
        <mxCell id="cIDCOp1NnjhTxHDQNaKy-14" style="edgeStyle=orthogonalEdgeStyle;rounded=0;orthogonalLoop=1;jettySize=auto;html=1;exitX=0.5;exitY=1;exitDx=0;exitDy=0;entryX=0.5;entryY=0;entryDx=0;entryDy=0;" edge="1" parent="WIyWlLk6GJQsqaUBKTNV-1" source="cIDCOp1NnjhTxHDQNaKy-2" target="cIDCOp1NnjhTxHDQNaKy-3">
          <mxGeometry relative="1" as="geometry" />
        </mxCell>
        <mxCell id="cIDCOp1NnjhTxHDQNaKy-2" value="Request:&lt;br&gt;/authorize?response_type=code&lt;br&gt;&amp;amp;client_id=...&lt;br&gt;&amp;amp;code_challenge=...&lt;br&gt;&amp;amp;code_challenge_method=S256&lt;br&gt;state=random string" style="rounded=1;whiteSpace=wrap;html=1;" vertex="1" parent="WIyWlLk6GJQsqaUBKTNV-1">
          <mxGeometry x="190" y="320" width="220" height="140" as="geometry" />
        </mxCell>
        <mxCell id="cIDCOp1NnjhTxHDQNaKy-15" style="edgeStyle=orthogonalEdgeStyle;rounded=0;orthogonalLoop=1;jettySize=auto;html=1;entryX=0.5;entryY=0;entryDx=0;entryDy=0;" edge="1" parent="WIyWlLk6GJQsqaUBKTNV-1" source="cIDCOp1NnjhTxHDQNaKy-3" target="cIDCOp1NnjhTxHDQNaKy-7">
          <mxGeometry relative="1" as="geometry" />
        </mxCell>
        <mxCell id="cIDCOp1NnjhTxHDQNaKy-3" value="Response with code and state" style="rounded=1;whiteSpace=wrap;html=1;" vertex="1" parent="WIyWlLk6GJQsqaUBKTNV-1">
          <mxGeometry x="550" y="510" width="120" height="60" as="geometry" />
        </mxCell>
        <mxCell id="cIDCOp1NnjhTxHDQNaKy-18" style="edgeStyle=orthogonalEdgeStyle;rounded=0;orthogonalLoop=1;jettySize=auto;html=1;" edge="1" parent="WIyWlLk6GJQsqaUBKTNV-1" source="cIDCOp1NnjhTxHDQNaKy-4" target="cIDCOp1NnjhTxHDQNaKy-5">
          <mxGeometry relative="1" as="geometry" />
        </mxCell>
        <mxCell id="cIDCOp1NnjhTxHDQNaKy-4" value="&lt;div&gt;POST&amp;nbsp;/token&lt;/div&gt;&lt;div&gt;&amp;nbsp; grant_type=authorization_code&lt;br&gt;&amp;amp;&lt;span style=&quot;background-color: initial;&quot;&gt;code=AUTH_CODE_HERE&lt;br&gt;&amp;amp;&lt;/span&gt;&lt;span style=&quot;background-color: initial;&quot;&gt;redirect_uri=REDIRECT_URI&lt;br&gt;&amp;amp;&lt;/span&gt;&lt;span style=&quot;background-color: initial;&quot;&gt;client_id=CLIENT_ID&lt;br&gt;&amp;amp;&lt;/span&gt;&lt;span style=&quot;background-color: initial;&quot;&gt;code_verifier=CODE_VERIFIER&lt;/span&gt;&lt;/div&gt;" style="rounded=1;whiteSpace=wrap;html=1;" vertex="1" parent="WIyWlLk6GJQsqaUBKTNV-1">
          <mxGeometry x="190" y="710" width="220" height="140" as="geometry" />
        </mxCell>
        <mxCell id="cIDCOp1NnjhTxHDQNaKy-19" style="edgeStyle=orthogonalEdgeStyle;rounded=0;orthogonalLoop=1;jettySize=auto;html=1;exitX=0.5;exitY=1;exitDx=0;exitDy=0;entryX=0.5;entryY=0;entryDx=0;entryDy=0;" edge="1" parent="WIyWlLk6GJQsqaUBKTNV-1" source="cIDCOp1NnjhTxHDQNaKy-5" target="cIDCOp1NnjhTxHDQNaKy-17">
          <mxGeometry relative="1" as="geometry" />
        </mxCell>
        <mxCell id="cIDCOp1NnjhTxHDQNaKy-5" value="hash the verifier and compare it to the challenge sent in the request, &lt;br&gt;only issue the access token if they match. This ensures that even if someone was able to intercept the authorization code, they will not be able to use it to get an access token since they won&#39;t have the secret." style="rounded=1;whiteSpace=wrap;html=1;" vertex="1" parent="WIyWlLk6GJQsqaUBKTNV-1">
          <mxGeometry x="500" y="900" width="220" height="140" as="geometry" />
        </mxCell>
        <mxCell id="cIDCOp1NnjhTxHDQNaKy-11" value="" style="edgeStyle=orthogonalEdgeStyle;rounded=0;orthogonalLoop=1;jettySize=auto;html=1;" edge="1" parent="WIyWlLk6GJQsqaUBKTNV-1" source="cIDCOp1NnjhTxHDQNaKy-6" target="cIDCOp1NnjhTxHDQNaKy-0">
          <mxGeometry relative="1" as="geometry" />
        </mxCell>
        <mxCell id="cIDCOp1NnjhTxHDQNaKy-6" value="Create state (random string)" style="rounded=1;whiteSpace=wrap;html=1;" vertex="1" parent="WIyWlLk6GJQsqaUBKTNV-1">
          <mxGeometry x="240" y="30" width="120" height="60" as="geometry" />
        </mxCell>
        <mxCell id="cIDCOp1NnjhTxHDQNaKy-16" style="edgeStyle=orthogonalEdgeStyle;rounded=0;orthogonalLoop=1;jettySize=auto;html=1;" edge="1" parent="WIyWlLk6GJQsqaUBKTNV-1" source="cIDCOp1NnjhTxHDQNaKy-7" target="cIDCOp1NnjhTxHDQNaKy-4">
          <mxGeometry relative="1" as="geometry" />
        </mxCell>
        <mxCell id="cIDCOp1NnjhTxHDQNaKy-7" value="Verify state" style="rounded=1;whiteSpace=wrap;html=1;" vertex="1" parent="WIyWlLk6GJQsqaUBKTNV-1">
          <mxGeometry x="240" y="610" width="120" height="50" as="geometry" />
        </mxCell>
        <mxCell id="cIDCOp1NnjhTxHDQNaKy-17" value="Token response" style="rounded=1;whiteSpace=wrap;html=1;" vertex="1" parent="WIyWlLk6GJQsqaUBKTNV-1">
          <mxGeometry x="250" y="1080" width="120" height="50" as="geometry" />
        </mxCell>
      </root>
    </mxGraphModel>
  </diagram>
</mxfile>
